<?xml version="1.0" encoding="UTF-8" standalone="no"?>
<!-- Created with Inkscape (http://www.inkscape.org/) -->

<svg
   width="297mm"
   height="210mm"
   viewBox="0 0 297 210"
   version="1.1"
   id="svg1"
   sodipodi:docname="Yike Teck_lock.svg"
   xmlns:inkscape="http://www.inkscape.org/namespaces/inkscape"
   xmlns:sodipodi="http://sodipodi.sourceforge.net/DTD/sodipodi-0.dtd"
   xmlns="http://www.w3.org/2000/svg"
   xmlns:svg="http://www.w3.org/2000/svg">
  <sodipodi:namedview
     id="namedview1"
     pagecolor="#ffffff"
     bordercolor="#000000"
     borderopacity="0.25"
     inkscape:showpageshadow="2"
     inkscape:pageopacity="0.0"
     inkscape:pagecheckerboard="0"
     inkscape:deskcolor="#d1d1d1"
     inkscape:document-units="mm" />
  <defs
     id="defs1" />
  <g
     id="g30">
    <path
       style="font-size:35.7266px;line-height:0px;font-family:Orbitron;-inkscape-font-specification:'Orbitron, Normal';font-variation-settings:'wght' 700;fill-opacity:0.72;stroke:#000000;stroke-width:0;stroke-linejoin:round;paint-order:stroke markers fill"
       d="m 47.499671,-86.850563 v 0 -9.646182 L 35.638439,-112.57372 h 5.57335 l 8.681564,10.89662 8.574384,-10.89662 h 5.68053 l -11.896958,16.112701 v 9.610456 z"
       id="text19"
       transform="scale(1.0213877,-0.97906016)"
       aria-label="Y" />
    <path
       style="font-size:35.7266px;line-height:0px;font-family:Orbitron;-inkscape-font-specification:'Orbitron, Normal';font-variation-settings:'wght' 700;fill:#aa0000;fill-opacity:0.61;stroke:#000000;stroke-width:0;stroke-linejoin:round;stroke-opacity:0.540426;paint-order:stroke markers fill"
       d="m 47.485056,-75.649979 v 0 -20.971514 H 36.981435 v -4.751637 h 25.723152 v 4.751637 H 52.236693 v 20.971514 z"
       id="text20"
       transform="scale(1.0213877,-0.97906016)"
       aria-label="T" />
    <path
       id="path24"
       style="font-variation-settings:'wght' 700;fill:none;fill-opacity:0.370213;stroke:#a80000;stroke-linejoin:round;stroke-opacity:0.66;paint-order:stroke markers fill"
       d="M 70.526241,98.181015 A 19.646564,19.504797 0 0 1 50.879677,117.68581 19.646564,19.504797 0 0 1 31.233112,98.181015 19.646564,19.504797 0 0 1 50.879677,78.676218 19.646564,19.504797 0 0 1 70.526241,98.181015 Z" />
    <path
       style="font-size:34.925px;line-height:0px;font-family:Orbitron;-inkscape-font-specification:'Orbitron, Normal';font-variation-settings:'wght' 700;fill-opacity:0.72;stroke:#aa8800;stroke-width:0.4;stroke-linejoin:round;stroke-opacity:0;paint-order:stroke markers fill"
       d="m 94.481,106.49844 v 0 -9.429749 L 82.885901,81.352441 H 88.3342 l 8.486775,10.652125 8.382005,-10.652125 h 5.55307 L 99.126025,97.103616 v 9.394824 z m 18.02467,0 v 0 -20.256499 h 4.57518 v 20.256499 z m 0,-22.282149 v 0 -4.610099 h 4.57518 v 4.610099 z m 8.06388,22.282149 v 0 -26.892248 h 4.57518 v 14.458949 h 3.59727 l 7.22948,-7.8232 h 4.8895 v 1.2573 l -8.06768,8.87095 8.03275,8.870949 v 1.2573 h -4.85457 L 128.742,98.675241 h -3.59727 v 7.823199 z m 27.2222,0 q -1.32715,0 -2.40982,-0.66357 -1.08268,-0.66358 -1.74625,-1.74625 -0.66358,-1.08268 -0.66358,-2.40983 V 91.061591 q 0,-1.32715 0.66358,-2.409825 0.66357,-1.082675 1.74625,-1.74625 1.08267,-0.663575 2.40982,-0.663575 h 10.93153 q 1.32715,0 2.40982,0.663575 1.1176,0.663575 1.74625,1.74625 0.66358,1.082675 0.66358,2.409825 v 7.61365 h -15.99565 v 2.828929 q 0,0.17462 0.10477,0.31432 0.1397,0.10478 0.31433,0.10478 h 15.57655 v 4.57517 z m -0.24447,-11.944349 h 11.42047 v -3.317875 q 0,-0.174625 -0.1397,-0.2794 -0.10477,-0.1397 -0.2794,-0.1397 h -10.58227 q -0.17463,0 -0.31433,0.1397 -0.10477,0.104775 -0.10477,0.2794 z m 39.46521,11.944349 v 0 -20.500974 h -10.26795 v -4.645025 h 25.146 v 4.645025 h -10.23302 v 20.500974 z m 22.14248,0 q -1.32715,0 -2.40982,-0.66357 -1.08268,-0.66358 -1.74625,-1.74625 -0.66358,-1.08268 -0.66358,-2.40983 V 91.061591 q 0,-1.32715 0.66358,-2.409825 0.66357,-1.082675 1.74625,-1.74625 1.08267,-0.663575 2.40982,-0.663575 h 10.93153 q 1.32715,0 2.40982,0.663575 1.1176,0.663575 1.74625,1.74625 0.66358,1.082675 0.66358,2.409825 v 7.61365 H 208.9105 v 2.828929 q 0,0.17462 0.10477,0.31432 0.1397,0.10478 0.31433,0.10478 h 15.57655 v 4.57517 z M 208.9105,94.554091 h 11.42047 v -3.317875 q 0,-0.174625 -0.1397,-0.2794 -0.10477,-0.1397 -0.2794,-0.1397 H 209.3296 q -0.17463,0 -0.31433,0.1397 -0.10477,0.104775 -0.10477,0.2794 z m 23.59366,11.944349 q -1.32715,0 -2.40982,-0.66357 -1.08268,-0.66358 -1.74625,-1.74625 -0.66358,-1.08268 -0.66358,-2.40983 V 91.061591 q 0,-1.32715 0.66358,-2.409825 0.66357,-1.082675 1.74625,-1.74625 1.08267,-0.663575 2.40982,-0.663575 h 15.71625 v 4.575175 h -15.54162 q -0.17463,0 -0.31433,0.1397 -0.10477,0.104775 -0.10477,0.2794 v 10.267954 q 0,0.17462 0.10477,0.31432 0.1397,0.10478 0.31433,0.10478 h 15.57655 v 4.57517 z m 18.64285,0 v 0 -26.892248 h 4.57518 v 14.458949 h 3.59727 l 7.22948,-7.8232 h 4.8895 v 1.2573 l -8.06768,8.87095 8.03275,8.870949 v 1.2573 h -4.85457 l -7.22948,-7.823199 h -3.59727 v 7.823199 z"
       id="text31"
       aria-label="Yike Teck" />
    <path
       style="fill:#aa0000;fill-opacity:0.61;stroke:#a80000;stroke-width:1;stroke-linejoin:round;stroke-dasharray:none;stroke-opacity:0.66;paint-order:stroke markers fill"
       d="m 81.866408,119.594 c 61.399802,-0.16439 122.799612,-0.32878 184.199412,-0.49317"
       id="path7"
       transform="translate(5.1782969,-3.2056125)" />
    <path
       style="fill:#aa0000;fill-opacity:1;stroke:#a80000;stroke-width:1;stroke-linejoin:round;stroke-dasharray:none;stroke-opacity:1;paint-order:stroke markers fill"
       id="path8"
       d="m 119.594,33.782223 -3.14397,1.815169 -3.14396,1.81517 v -3.630339 -3.630339 l 3.14396,1.815169 z"
       transform="matrix(1.37567,0,0,1.3253409,56.243672,71.245544)" />
  </g>
</svg>
