<?xml version="1.0" encoding="UTF-8" standalone="no"?>
<!-- Created with Inkscape (http://www.inkscape.org/) -->

<svg
   width="7745.4316"
   height="1595.4324"
   viewBox="0 0 2049.312 422.12481"
   version="1.1"
   id="svg1"
   xml:space="preserve"
   sodipodi:docname="CLEVIDOT_LOGO_RAW.svg"
   xmlns:inkscape="http://www.inkscape.org/namespaces/inkscape"
   xmlns:sodipodi="http://sodipodi.sourceforge.net/DTD/sodipodi-0.dtd"
   xmlns="http://www.w3.org/2000/svg"
   xmlns:svg="http://www.w3.org/2000/svg"><sodipodi:namedview
     id="namedview1"
     pagecolor="#000000"
     bordercolor="#000000"
     borderopacity="0.25"
     inkscape:showpageshadow="2"
     inkscape:pageopacity="0.0"
     inkscape:pagecheckerboard="0"
     inkscape:deskcolor="#d1d1d1"
     inkscape:document-units="mm" /><defs
     id="defs1" /><g
     inkscape:label="Layer 1"
     inkscape:groupmode="layer"
     id="layer1"
     transform="translate(-179.08937,-163.69769)"><g
       id="g1"><g
         id="g2"
         transform="translate(296.17237,223.71325)"
         style="fill:#ffcc00"><path
           style="fill:#ffcc00"
           d="m 145.53355,356.78623 c -7.65894,-0.41771 -14.04309,-2.45355 -19.6946,-6.28042 -6.01292,-4.07158 -10.77259,-10.05374 -13.83431,-17.38755 -1.33928,-3.20802 -2.27598,-6.59697 -2.80767,-10.15808 -0.23382,-1.56609 -0.21282,-5.39531 0.0411,-7.493 1.39963,-11.5625 5.25188,-20.03831 12.33482,-27.13931 2.56252,-2.56906 5.23229,-4.69707 8.59366,-6.8498 5.75606,-3.68637 12.11754,-6.61131 23.66434,-10.88062 12.19067,-4.50737 26.40623,-15.07096 39.18619,-29.11928 11.2876,-12.40785 20.20156,-26.66553 24.78309,-39.63999 4.0449,-11.45477 6.9129,-24.19989 8.07674,-35.89234 0.47087,-4.7305 0.59508,-7.46396 0.59636,-13.12333 10e-4,-5.92705 -0.1324,-8.6015 -0.68381,-13.67367 -2.4335,-22.38479 -11.02118,-43.507856 -25.59247,-62.949666 -5.42732,-7.24142 -11.67505,-13.925 -18.4261,-19.71153 -9.29769,-7.96932 -19.69504,-14.46141 -31.26475,-19.52166 -15.20184,-6.64883 -32.32305,-10.63452 -48.99925,-11.40664 -2.41306,-0.11173 -10.40173,-0.0555 -12.911672,0.0909 -9.549677,0.55688 -17.446517,1.73794 -25.865178,3.8684 -19.424568,4.91565 -37.506545,14.52628 -53.2558249,28.30563 -3.566913,3.12076 -7.749619,7.2844 -10.846729,10.79728 -12.3206071,13.9746 -21.3029691,30.54781 -26.6607471,49.191336 -2.605794,9.06741 -4.100853,17.62384 -4.711793,26.96634 -0.19807,3.02879 -0.0962,12.4092 0.18487,17.018 0.787638,12.91667 3.276974,22.78133 8.215053,32.55433 4.063376,8.04187 9.792906,15.85859 16.3729701,22.33743 10.734235,10.56911 23.9076039,17.57961 39.3175019,20.9237 4.635623,1.00598 9.224126,1.63329 15.509209,2.12033 2.185745,0.16938 3.760335,0.34878 5.223523,0.59516 10.339474,1.74098 18.10653,6.62391 23.09671,14.52024 0.793155,1.25507 2.042225,3.79676 2.599259,5.28914 0.825552,2.21179 1.335693,4.33386 1.511798,6.28874 0.06024,0.66867 0.07957,6.07652 0.05923,16.57127 -0.03268,16.865 -0.0071,15.90019 -0.479248,18.06357 -0.943976,4.32514 -3.625217,8.49115 -7.457937,11.58785 -4.057595,3.27839 -8.974446,5.29358 -14.859,6.09001 -1.311033,0.17744 -5.6139,0.24001 -8.424334,0.1225 -27.27898,-1.14055 -56.0319279,-9.47696 -80.856675,-23.44296 -11.34459,-6.38228 -20.420108,-12.88698 -29.548658,-21.17842 -2.39003,-2.17085 -6.38868,-6.16897 -8.73061,-8.72945 -12.00508,-13.12536 -21.49799,-28.25672 -28.30935,-45.12411 -6.920248,-17.13705 -11.057578,-35.90238 -12.189588,-55.28733 -0.46633,-7.98557 -0.40363,-18.15668 0.17094,-27.72834 2.15901,-35.9669 11.907118,-66.404396 30.664228,-95.746036 6.28128,-9.82578 14.41605,-20.60881 21.82161,-28.925632 14.042018,-15.7698819 30.824863,-29.302711 49.5939301,-39.989998 28.0014289,-15.944283 59.4523289,-25.217577 91.9281739,-27.10501 7.804221,-0.453566 16.917698,-0.45353 25.399998,9.9e-5 38.86101,2.078268 73.93353,13.521205 105.01373,34.262299 15.89278,10.6059011 31.39351,24.1744751 43.76131,38.306491 25.52971,29.171391 41.70643,65.239911 47.34654,105.566457 0.93227,6.66567 1.5291,13.2089 1.91912,21.03967 0.146,2.93132 0.19838,12.43992 0.0877,15.91733 -0.9846,30.93074 -7.71458,58.88833 -20.66637,85.852 -1.41455,2.94488 -2.88851,5.81028 -4.72545,9.18634 -8.58501,15.77812 -19.57091,30.96569 -32.18302,44.49172 -4.35968,4.67559 -9.84986,10.08208 -13.84869,13.63759 -0.23218,0.20645 -0.59413,0.53248 -0.80433,0.72452 -0.2102,0.19204 -0.8777,0.78259 -1.48334,1.31233 -13.37327,11.69744 -24.86177,19.42596 -40.13151,26.99722 -15.49917,7.68501 -30.36696,12.73309 -40.513,13.75542 -1.5592,0.15711 -4.66205,0.22233 -6.30767,0.13258 z m 4.4195,-24.76911 c 1.49269,-0.1933 2.65932,-0.4227 4.72451,-0.92898 12.80585,-3.13936 31.28939,-11.66906 44.55376,-20.56046 6.8707,-4.60558 14.58595,-10.84899 22.03374,-17.83036 1.8898,-1.77145 6.76572,-6.65103 8.46577,-8.47214 0.71728,-0.76835 1.53689,-1.64465 1.82135,-1.94733 0.76696,-0.81609 3.16648,-3.51451 4.32908,-4.86834 25.47699,-29.66758 40.60063,-64.33099 44.60513,-102.235 0.87421,-8.27478 1.24867,-17.01088 1.06822,-24.92136 -0.048,-2.10263 -0.10675,-4.12777 -0.13062,-4.50031 -0.0239,-0.37253 -0.083,-1.43933 -0.13148,-2.37066 -0.37638,-7.23632 -1.32647,-15.53741 -2.62611,-22.94467 -5.59547,-31.891136 -18.69185,-60.348236 -38.5947,-83.862336 -5.49502,-6.49206 -11.97388,-13.08284 -19.01696,-19.345471 -0.83738,-0.744592 -1.54157,-1.374076 -1.56485,-1.398853 -0.15503,-0.16497 -3.72006,-3.173804 -5.08,-4.28744 -19.79676,-16.2113179 -41.50331,-27.622623 -65.43083,-34.397522 -15.10309,-4.276323 -30.79184,-6.597958 -48.10717,-7.118938 -31.054954,-0.934376 -61.604767,5.735268 -89.069341,19.445644 C 0.32501307,-4.7977939 -9.9757479,1.7718581 -19.807205,9.6327621 -31.372822,18.880244 -40.933024,28.832764 -50.689332,41.782174 c -20.34474,27.00331 -31.42579,54.17002 -35.03551,85.894336 -1.30225,11.44493 -1.74975,25.28704 -1.15155,35.61918 1.35985,23.48702 7.58126,45.26961 18.22839,63.82182 4.14311,7.2192 8.96722,13.94048 14.39873,20.06127 2.17762,2.45397 4.47515,4.84734 6.53115,6.80361 2.533,2.41011 2.65909,2.52656 4.106338,3.79233 9.06594,7.92913 18.556807,14.14718 30.903332,20.24666 16.9614271,8.37935 35.885867,13.82787 54.324358,15.64048 4.602872,0.45249 10.782115,0.72848 11.594127,0.51785 0.556968,-0.14448 0.950835,-0.46716 1.213431,-0.99412 l 0.220419,-0.44232 -0.0013,-11.64621 c -0.0014,-12.82049 0.02295,-12.20591 -0.523812,-13.23174 -0.36931,-0.6929 -1.241289,-1.47953 -2.165475,-1.95351 -1.773005,-0.90933 -3.507573,-1.28115 -7.384795,-1.583 -6.209083,-0.48339 -10.741181,-1.06922 -15.790334,-2.04111 -18.647251,-3.58932 -35.1347199,-11.40998 -48.895002,-23.19285 -5.935748,-5.08276 -11.349566,-10.91654 -16.300839,-17.56534 -11.683478,-15.6891 -18.091028,-31.88332 -20.183718,-51.01167 -0.68236,-6.23712 -0.89104,-10.72769 -0.89315,-19.21933 -0.002,-6.69911 0.0312,-7.6199 0.42581,-11.938 1.98934,-21.7683 8.71048,-43.385906 19.321658,-62.145336 6.077279,-10.744 13.618924,-20.84766 21.989374,-29.45953 1.872037,-1.92603 1.909602,-1.96367 3.472532,-3.47965 8.7034081,-8.44193 19.2709711,-16.46225 29.802717,-22.61892 C 37.462244,9.9977761 59.255193,3.2503981 83.218885,1.3151001 89.774927,0.78563714 98.12325,0.62862114 103.75055,0.92894014 126.0668,2.1199151 148.17837,7.8872831 167.58922,17.580003 c 20.5996,10.286311 38.12315,24.880451 52.03564,43.336841 18.84606,25.00129 29.39005,52.747666 31.27358,82.295996 0.40106,6.29184 0.38512,13.44901 -0.0447,20.066 -0.94549,14.55595 -4.10992,30.13798 -9.13548,44.9842 -3.50119,10.34299 -8.45819,20.21623 -15.29864,30.47144 -12.75873,19.1279 -30.80539,36.70769 -48.89848,47.63349 -4.02749,2.43206 -7.95321,4.45995 -11.7946,6.09265 -0.72179,0.30679 -2.85539,1.13602 -4.74134,1.84274 -7.52035,2.81811 -11.5237,4.55712 -15.15533,6.58329 -3.77117,2.10403 -6.53927,4.30852 -8.27211,6.58784 -2.0678,2.71991 -3.29588,6.27532 -3.78863,10.96846 -0.11486,1.09393 -0.11227,1.1997 0.0486,1.98736 0.4874,2.3859 1.62576,4.93312 3.07051,6.87068 2.17444,2.91614 4.83055,4.34059 8.85692,4.74987 1.18458,0.12042 3.13846,0.10475 4.20783,-0.0337 z M 113.0235,241.79816 c -0.0244,-0.0649 -0.0546,-20.04428 -0.067,-44.39865 l -0.0226,-44.28067 -0.19366,-0.84666 c -0.92967,-4.06457 -3.06675,-7.32841 -6.32269,-9.65629 -0.94625,-0.67653 -2.84371,-1.62744 -4.02424,-2.01675 -4.86441,-1.60413 -10.29248,-0.64845 -14.345114,2.52562 -0.771935,0.60459 -2.182362,2.03213 -2.779564,2.8133 -1.416843,1.85328 -2.408555,4.10519 -2.919054,6.62837 -0.108393,0.53574 -0.13856,2.1253 -0.189644,9.99275 -0.06544,10.0789 -0.06973,10.18021 -0.553645,13.09577 -1.403506,8.45599 -6.067107,16.34911 -12.873792,21.78881 -5.247558,4.19369 -11.380206,6.74921 -18.194947,7.58197 -1.515355,0.18518 -5.583122,0.25166 -7.838089,0.1281 -11.287217,-0.61847 -19.509381,-3.51894 -26.605665,-9.38546 -1.101909,-0.91095 -3.46006,-3.25331 -4.580204,-4.54953 -7.1295689,-8.25024 -11.54071593,-19.0463 -12.33445793,-30.18796 -0.116081,-1.62943 -0.05343,-10.88419 0.08566,-12.65337 0.511201,-6.50234 1.266305,-11.36632 2.62879803,-16.93333 3.585328,-14.64931 10.4669639,-28.12953 20.3144449,-39.793336 0.629042,-0.74507 1.183568,-1.39681 1.232279,-1.44831 0.04871,-0.0515 0.374171,-0.41345 0.723242,-0.80433 7.086515,-7.93531 15.725349,-14.80645 25.484992,-20.27019 1.464352,-0.81979 6.034451,-3.09304 7.535334,-3.7482 11.111706,-4.85051 21.57423,-7.4066 33.697334,-8.23257 2.200372,-0.14991 7.792542,-0.19992 10.160002,-0.0909 13.79727,0.63562 26.56755,3.88431 38.65033,9.83244 14.172,6.97661 26.53385,17.41808 35.79675,30.2358 9.35627,12.946926 15.35365,27.983686 17.45354,43.759886 0.69143,5.19459 0.99243,10.95637 0.76472,14.63837 -1.00616,16.26977 -4.63164,30.6455 -10.92402,43.31597 -10.65544,21.45599 -28.38609,36.01446 -50.05679,41.10116 -3.67458,0.86252 -7.51059,1.43811 -11.91486,1.78781 -0.60537,0.0481 -2.59519,0.1101 -4.42183,0.13786 -2.79509,0.0425 -3.3282,0.0318 -3.36556,-0.0675 z m 26.81538,-30.94829 c 7.20255,-4.13832 13.59516,-10.57117 18.28825,-18.40336 6.22943,-10.39615 9.84692,-22.86671 10.86656,-37.46024 0.12144,-1.7382 0.1278,-2.33068 0.0446,-4.15538 -0.43625,-9.56866 -2.50623,-18.33678 -6.31262,-26.73937 -4.98271,-10.99931 -12.69576,-20.59894 -22.49228,-27.993806 -6.10237,-4.60635 -12.98069,-8.23844 -20.1845,-10.65839 -5.7458,-1.93017 -10.95695,-2.98849 -17.653,-3.5851 -1.97502,-0.17597 -9.35019,-0.14742 -11.430005,0.0443 -7.71036,0.71057 -14.239547,2.22785 -20.912668,4.85979 -19.381851,7.64439 -34.864602,23.579516 -41.936599,43.161916 -3.11708,8.6312 -4.533861,17.51057 -4.349998,27.26266 0.05992,3.17805 0.220259,4.46679 0.863781,6.94267 1.210889,4.65876 3.544984,8.94772 6.444182,11.84136 1.145966,1.14378 2.077982,1.82468 3.3763,2.46664 2.804231,1.38657 6.452083,2.06182 11.303,2.09227 1.969262,0.0124 2.669611,-0.0743 4.000889,-0.49481 2.73521,-0.86405 5.120491,-2.87329 6.436909,-5.42212 0.423343,-0.81967 0.806107,-1.88626 1.042746,-2.90567 0.133365,-0.57452 0.153018,-1.53412 0.206341,-10.07534 0.06346,-10.16483 0.05745,-10.02199 0.548377,-13.02988 1.31677,-8.06776 5.287579,-15.76183 11.170882,-21.64536 2.465157,-2.46525 4.814062,-4.3115 7.74802,-6.08999 7.625485,-4.62238 16.734153,-6.53753 25.741843,-5.41239 8.7372,1.09137 16.87471,5.0816 23.20651,11.37934 2.13028,2.11882 3.63225,3.95613 5.26992,6.44654 3.51383,5.34347 5.56742,11.06298 6.37975,17.76841 0.1388,1.1457 0.1504,3.22177 0.17377,31.09429 l 0.025,29.86663 0.50566,-0.25525 c 0.27812,-0.14039 1.01086,-0.54553 1.62833,-0.90031 z"
           id="path1" /><path
           id="use1"
           style="fill:#ffcc00;stroke-width:1.47637;stroke-dasharray:none"
           d="m 93.265625,-60.011719 c -40.19776,0.29018 -80.301668,11.959438 -114.203293,33.602033 -21.703795,13.857514 -40.687141,31.9262162 -55.703613,52.836858 -15.048988,20.45863 -26.841119,43.499209 -33.288569,68.123484 -5.88446,22.182534 -7.81178,45.291304 -6.96226,68.188864 1.17091,27.04257 8.09418,53.99991 21.332745,77.68921 9.265564,16.67202 21.713993,31.57786 36.541104,43.58933 13.987175,11.35812 29.906085,20.20794 46.599355,26.90994 18.8402226,7.50632 38.888121,12.09081 59.156119,13.13004 5.304779,0.21994 10.729277,0.33627 15.878119,-1.15784 7.820187,-2.13714 15.080027,-7.12453 19.002783,-14.33282 2.249294,-4.1427 3.231108,-8.91387 2.979023,-13.61035 -0.04127,-9.97967 0.224956,-19.96709 -0.190427,-29.94064 -1.573745,-11.40078 -9.474635,-21.51814 -19.856936,-26.3256 -5.538357,-2.68455 -11.675401,-3.85964 -17.779574,-4.27447 -5.673517,-0.52339 -11.389523,-1.12431 -16.921805,-2.61088 -8.047726,-1.99283 -15.71744,-5.24148 -22.7097241,-9.7488 -8.3654042,-5.39681 -15.5152209,-12.68268 -21.2316809,-20.8837 -5.105846,-7.42288 -9.082408,-15.69746 -11.074295,-24.51155 -2.174941,-9.50937 -2.515748,-19.40202 -2.30435,-29.1928 0.227731,-9.9629 2.070397,-19.76253 4.874543,-29.3055 C -16.98374,99.062908 -6.7739823,81.16856 7.4120993,67.049905 16.929568,57.534052 28.033334,49.624684 40.052177,43.583058 52.722191,37.257377 66.57393,33.208764 80.62918,31.653126 c 11.987005,-1.359653 24.16301,-1.122069 36.05441,0.862499 19.63576,3.226475 38.69709,10.756893 54.81061,22.58846 6.82393,5.004496 13.11364,10.761818 18.67212,17.171066 10.22379,11.685292 18.29737,25.174128 23.77344,39.690229 4.16405,11.21539 6.61481,23.0966 7.12399,35.00822 0.45939,10.27994 -0.31007,20.52161 -2.24475,30.59656 -1.73905,8.96961 -4.08068,17.87573 -7.52205,26.29696 -4.37703,10.61706 -10.73675,20.32204 -18.00593,29.17419 -6.94132,8.30989 -14.71094,15.93066 -23.38909,22.40278 -5.61043,4.15292 -11.65011,7.79479 -18.19133,10.28233 -5.38745,2.09041 -10.82306,4.0852 -16.01053,6.64868 -8.02996,3.88667 -15.65019,9.00516 -21.27562,16.02014 -5.10068,6.2935 -8.29805,13.97724 -9.75722,21.91142 -1.10409,5.86946 -1.31441,11.99292 0.15212,17.82181 1.65098,6.74685 4.78501,13.1507 9.16044,18.54817 4.84655,5.97312 11.34529,10.63531 18.67311,13.0317 9.37538,3.19418 19.68009,3.05221 29.17857,0.45537 13.86821,-3.44023 26.98794,-9.33942 39.57538,-16.00725 12.58202,-6.76435 24.27619,-15.12394 34.9301,-24.63044 26.9053,-23.74259 48.33865,-53.83495 61.15133,-87.40493 12.93301,-33.7672 16.74682,-70.77156 12.25977,-106.58398 C 305.96472,95.780171 296.17205,66.685793 280.35168,41.146443 270.10689,24.499074 257.28277,9.4997426 242.77032,-3.573545 226.66559,-18.155091 208.57507,-30.64267 188.87175,-39.850466 c -18.579,-8.740837 -38.45802,-14.686459 -58.77741,-17.62936 -12.18526,-1.800575 -24.512,-2.59852 -36.828715,-2.531893 z m 1.796875,35.246094 c 21.5849,0.09296 43.25986,3.246201 63.61157,10.565382 19.1117,6.8387923 36.98468,17.1050024 52.60375,30.060654 12.62616,10.392187 24.15745,22.218561 33.5961,35.600684 12.67557,18.013521 21.70325,38.647372 26.57033,60.106285 3.68611,16.04838 5.2571,32.49051 4.73354,48.94221 -0.66893,20.13558 -4.43601,40.27678 -11.68613,59.12385 -10.75338,28.24042 -28.87551,53.38013 -51.46866,73.38201 -6.24928,5.51866 -12.80848,10.69398 -19.89988,15.12339 -8.86107,5.59754 -18.32749,10.20124 -28.0711,14.0427 -4.9019,1.86957 -9.89566,3.47794 -15.05631,4.43521 -2.58831,0.38025 -5.54501,0.40206 -7.7086,-1.27886 -1.61813,-1.41059 -2.65133,-3.42327 -3.10547,-5.47656 -0.33121,-2.29695 0.52253,-4.70144 1.20898,-6.7461 0.53193,-1.27935 1.32277,-2.4133 2.18165,-3.33398 2.42383,-2.53202 5.59983,-4.15422 8.68841,-5.72352 7.7514,-3.71167 16.09743,-6.04191 23.66956,-10.15052 15.07482,-8.14162 28.31303,-19.34938 39.86859,-31.9326 13.84535,-15.12277 25.34282,-32.68735 31.96015,-52.18224 3.99384,-11.6205 6.71208,-23.66588 8.34928,-35.83886 2.90122,-22.48123 1.22983,-45.64945 -5.71376,-67.26968 C 242.09709,83.67819 229.39258,62.479482 212.96451,44.833579 200.48086,31.50924 185.55662,20.488932 169.14872,12.478377 148.05599,2.1105959 124.72408,-3.6265948 101.24112,-4.4023243 77.194018,-5.1259779 52.93031,-0.72835498 30.871094,8.9296875 12.908494,16.850201 -3.5508845,28.149331 -17.46794,41.992276 c -11.94315,11.893247 -21.900941,25.780711 -29.233662,40.960398 -9.176859,18.819246 -14.660819,39.454036 -15.892613,60.362616 -0.415828,9.43145 -0.192517,18.90005 0.800699,28.28941 1.584547,13.7632 5.552206,27.32877 12.36102,39.43415 7.452947,13.50251 17.520658,25.60275 29.64967,35.15529 14.8932618,11.62722 32.881263,19.11931 51.532204,21.96669 5.39099,0.88546 10.848488,1.26782 16.264247,1.93368 0.404227,0.14487 1.061992,0.16507 1.274515,0.5406 0.06239,6.06991 0.04106,12.14172 0.05756,18.21255 -10.100503,-0.39419 -20.226263,-2.02983 -29.995967,-4.57665 -17.7615552,-4.61815 -34.750188,-12.31455 -49.796735,-22.8383 -15.319308,-10.85838 -27.983948,-25.41794 -36.418717,-42.19292 -9.00619,-17.64481 -13.740263,-37.31508 -14.732851,-57.01528 -0.661369,-14.12269 0.164509,-28.28255 2.282863,-42.22161 2.87942,-18.02444 8.798384,-35.657905 17.689513,-51.664288 7.270235,-13.212853 16.157144,-25.516433 26.212431,-36.770378 17.422944,-19.277581 39.590406,-34.1169934 63.683945,-43.635027 21.037912,-8.340076 43.559236,-12.574638 66.163568,-12.690548 0.209583,-0.0027 0.419163,-0.0058 0.628747,-0.0083 z m 0.306641,76.490234 C 69.026267,51.990695 42.993266,62.967391 24.347519,81.56563 6.584907,99.100216 -4.5651905,123.27765 -5.9586442,148.23162 c -0.3648879,6.32452 -0.4516424,12.72354 0.5996159,18.99059 2.2201625,12.82925 8.8287435,25.02875 18.9664503,33.30318 5.707306,4.58515 12.635277,7.50291 19.810361,8.82455 6.335028,1.21016 12.868172,1.49229 19.27374,0.70508 13.618229,-2.01001 25.923013,-11.4055 31.307654,-24.09572 2.669685,-6.12402 3.679831,-12.87454 3.445281,-19.52571 0.05376,-4.61146 -0.132387,-9.24688 0.366517,-13.8369 1.214675,-4.88472 6.541387,-8.31161 11.490291,-7.2983 3.014554,0.56728 5.711834,2.40689 7.172534,5.13983 1.2114,2.11388 1.26725,4.61209 1.15475,6.98091 0.0229,28.75143 0.0716,57.50315 0.10387,86.2547 1.34432,2.71229 4.63405,3.8731 7.50586,3.49023 19.5451,0.20007 39.15093,-7.16901 53.44202,-20.56134 12.21638,-11.26937 20.70953,-26.21456 25.35006,-42.09586 3.19165,-10.72798 4.91796,-21.90844 4.96762,-33.10516 -0.37239,-24.84332 -10.49115,-49.32117 -27.49904,-67.395931 -15.65276,-16.773397 -37.11196,-28.0389 -59.83651,-31.258564 -5.39183,-0.77474 -10.84705,-1.089128 -16.293289,-1.022596 z m 2.125,35.289063 c 9.843219,-0.02365 19.664919,2.307412 28.547639,6.614387 7.88382,3.796556 15.01466,9.192181 20.85389,15.749651 3.7796,4.25012 7.12978,9.16161 9.72267,14.29256 3.52533,6.96005 5.83668,14.44733 6.72167,22.2226 0.61786,5.03351 0.44418,10.12487 -0.28496,15.12986 -0.89671,6.27171 -2.29066,12.63119 -4.57891,18.56972 -3.27393,8.60164 -8.36281,16.67464 -15.48395,22.59896 -0.05,-17.06476 0.0524,-34.13305 -0.21488,-51.19514 -1.31516,-15.31344 -11.09705,-29.56753 -24.88255,-36.35108 -10.96404,-5.52445 -24.208715,-6.35369 -35.742416,-2.10613 -10.491408,3.7703 -19.48093,11.54426 -24.674659,21.41658 -3.745285,7.0019 -5.566115,14.9949 -5.298473,22.92673 -0.111584,4.8398 0.151668,9.73893 -0.374392,14.52126 -0.900668,2.73033 -4.004279,4.32001 -6.774086,3.80483 -3.272163,-0.1716 -6.949188,-0.28801 -9.611004,-2.51001 -3.165701,-2.73094 -4.880855,-6.74967 -5.851561,-10.73203 -0.821198,-4.01157 -0.541214,-8.16116 -0.294717,-12.18348 0.778923,-10.27032 3.829141,-20.3882 9.107415,-29.24924 5.994927,-10.16868 14.680256,-18.82498 24.964836,-24.682138 10.05312,-5.755279 21.748715,-8.905462 33.341797,-8.830078 0.26888,-0.0026 0.53776,-0.0053 0.806641,-0.0078 z" /></g><path
         d="m 982.68209,458.89557 v 48.1279 q -48.1279,26.25158 -111.1317,26.25158 -51.19058,0 -86.84898,-20.56374 -35.6584,-20.56374 -56.4409,-56.65966 -20.78251,-36.09593 -20.78251,-78.09846 0,-66.72277 47.47162,-112.22552 47.69037,-45.50274 117.47583,-45.50274 48.1279,0 106.9752,25.15777 v 47.03408 q -53.59699,-30.62684 -104.78757,-30.62684 -52.50317,0 -87.28651,33.252 -34.56459,33.03324 -34.56459,82.91125 0,50.31553 34.12706,82.69248 34.12706,32.37696 87.28651,32.37696 55.56585,0 108.50654,-34.12706 z m 49.22171,-234.7329 h 39.8149 v 305.61217 h -39.8149 z m 268.86,208.48132 H 1159.224 q 1.5313,28.87674 19.2512,45.94027 17.9385,17.06352 46.159,17.06352 39.3774,0 72.6294,-24.50147 v 38.93984 q -18.3761,12.25074 -36.5335,17.50106 -17.9386,5.25032 -42.2213,5.25032 -33.252,0 -53.8157,-13.78208 -20.5638,-13.78209 -33.0333,-36.97098 -12.2507,-23.40766 -12.2507,-54.03451 0,-45.94027 26.0328,-74.59825 26.0328,-28.87674 67.5978,-28.87674 40.0337,0 63.8789,28.00169 23.8452,28.00169 23.8452,75.03577 z M 1160.0991,408.7988 h 101.2873 q -1.5313,-23.84519 -14.2196,-36.75222 -12.6883,-12.90702 -34.1271,-12.90702 -21.4388,0 -35.2208,12.90702 -13.5633,12.90703 -17.7198,36.75222 z m 300.1431,-80.28609 h 43.0963 l -88.8178,204.76234 h -13.3446 l -91.0055,-204.76234 h 43.5339 l 54.2533,123.81996 z m 93.6306,-84.66135 q 9.8444,0 16.8448,6.78165 7.0004,6.78166 7.0004,16.62601 0,9.62558 -7.0004,16.626 -7.0004,7.00042 -16.8448,7.00042 -9.188,0 -16.1885,-7.00042 -7.0004,-7.21919 -7.0004,-16.626 0,-9.18806 7.0004,-16.18848 7.0005,-7.21918 16.1885,-7.21918 z m -19.6887,84.66135 h 39.8149 v 201.26213 h -39.8149 z m 231.6702,-104.35004 h 40.0336 v 305.61217 h -85.0988 q -44.6277,0 -71.3168,-28.22045 -26.4704,-28.22045 -26.4704,-75.69206 0,-44.40893 27.7829,-73.06691 28.0017,-28.65797 71.3168,-28.65797 20.1263,0 43.7527,8.53176 z m 0,271.48511 V 368.10885 q -18.5949,-9.40682 -37.6273,-9.40682 -29.7518,0 -47.4716,19.46992 -17.5011,19.46993 -17.5011,52.50317 0,31.06437 15.3135,47.90914 9.188,10.0631 19.4699,13.56331 10.2819,3.50021 36.971,3.50021 z m 190.324,-167.5726 q 45.9402,0 76.3483,29.7518 30.4081,29.53303 30.4081,74.37948 0,43.53387 -30.8456,72.41061 -30.8456,28.65798 -77.6609,28.65798 -45.284,0 -75.6921,-29.0955 -30.4081,-29.31427 -30.4081,-73.06691 0,-44.19016 30.6269,-73.50443 30.8456,-29.53303 77.2234,-29.53303 z m -2.1877,35.87717 q -28.6579,0 -47.034,18.81363 -18.3761,18.81363 -18.3761,47.90914 0,28.87674 18.8136,47.25285 18.8136,18.15734 48.3467,18.15734 29.3142,0 47.9091,-18.37611 18.8136,-18.59487 18.8136,-47.47161 0,-28.65798 -19.4699,-47.47161 -19.4699,-18.81363 -49.003,-18.81363 z m 124.9138,-3.50022 74.817,-73.50443 v 41.56501 h 63.6601 v 35.87716 h -63.6601 v 98.6622 q 0,34.56458 28.658,34.56458 21.4388,0 45.284,-14.43837 v 37.18974 q -22.9701,12.90703 -50.0968,12.90703 -27.3454,0 -45.5027,-15.96971 -5.6879,-4.81279 -9.4068,-10.7194 -3.719,-6.12537 -6.3442,-15.75095 -2.4064,-9.84434 -2.4064,-37.18974 v -89.25538 h -35.0021 z"
         id="text1"
         style="font-size:448.027px;line-height:0px;font-family:'Gill Sans';-inkscape-font-specification:'Gill Sans, Normal';fill:#4d4d4d;stroke:#ffffff;stroke-width:1.47637;stroke-linejoin:round;paint-order:stroke fill markers"
         aria-label="Clevidot" /></g></g></svg>
